<?xml version="1.0" encoding="utf-8" ?><svg xmlns="http://www.w3.org/2000/svg" xmlns:xlink="http://www.w3.org/1999/xlink" width="1024" height="1024" viewBox="0 0 1024 1024"><path fill="white" d="M375.179 152.105C379.864 152.493 384.183 154.809 388.263 157.039C416.111 172.262 442.122 193.438 459.646 220.144C461.925 223.616 464.353 227.035 466.74 230.436C474.448 226.511 479.7 223.928 488.194 221.73C511.045 215.817 537.404 218.429 557.874 230.473C576.295 204.457 594.246 182.884 621.938 165.983C629.445 161.401 654.309 142.497 657.676 159.711C657.987 161.306 657.931 162.951 657.511 164.521C656.211 169.362 650.164 171.761 645.999 173.941C630.846 181.873 617.415 192.999 604.867 204.516C593.32 215.115 584.004 228.302 575.061 241.091C576.573 243.447 580.567 247.406 582.512 249.849C589.454 258.569 594.217 269.037 596.291 279.959C633.706 296.985 659.038 323.557 671.923 363.239C673.796 369.006 674.943 374.834 676.355 380.72C680.91 376.534 684.729 371.284 688.235 366.214C695.594 355.57 701.021 344.224 704.899 331.875C707.601 323.268 709.763 314.487 713.03 306.065C716.693 296.622 721.417 288.024 727.266 279.765C732.905 271.803 754.15 246.589 763.993 245.316C766.398 245.005 768.677 245.931 770.565 247.37C772.723 249.022 774.123 251.476 774.446 254.174C775.305 261.215 767.083 265.945 762.41 270.137C758.229 273.888 754.881 277.42 751.033 281.398C734.374 298.618 730.343 315.712 723.721 337.369C721.389 344.921 718.485 352.283 715.033 359.393C710.388 369.119 704.524 378.213 697.582 386.458C694.974 389.548 691.361 392.78 689.14 395.889C691.987 398.867 698.086 403.53 701.618 406.761C712.572 416.783 723.342 429.125 730.727 442.088C765.241 450.097 797.427 468.245 820.365 495.594C824.512 500.539 828.253 506.627 831.874 512.054C840.102 511.869 848.869 510.65 858.547 510.007C870.262 507.354 876.962 518.783 869.462 526.405C866.242 529.679 829.32 531.679 824.975 531.477C816.717 526.95 813.447 518.289 807.421 510.784C792.287 491.934 769.529 475.494 746.623 467.472C749.432 474.643 754.126 482.821 757.388 490.75C768.656 518.136 778.189 553.854 778.139 583.569C785.645 589.428 789.225 590.873 795.328 599.411C820.34 634.4 815.037 682.876 809.244 722.527C816.041 736.886 828.122 753.544 838.701 765.557C846.41 774.311 838.823 782.721 829.941 781.02C824.243 779.929 813.906 766.066 809.865 760.498C803.057 751.119 793.653 737.87 790.138 726.659C789.218 723.503 791.142 711.733 791.698 708.219C796.681 676.695 798.068 635.103 778.116 608.371C777.894 616.342 778.197 623.241 777.554 631.395C772.373 695.63 744.555 755.939 699.057 801.577C692.889 807.794 686.309 813.281 679.665 818.966C635.048 856.734 570.471 881.667 511.768 881.041C440.965 879.633 373.572 850.37 324.203 799.599C274.303 748.54 246.548 679.866 246.958 608.474C226.72 635.039 227.839 673.239 232.67 704.76C233.724 711.639 237.139 721.559 234.745 728.262C231.186 738.225 204.941 776.865 196.49 780.45C193.903 781.546 190.711 781.706 188.104 780.611C185.921 779.704 184.208 777.94 183.363 775.733C180.639 768.695 187.007 764.385 190.758 759.631C199.273 748.836 209.954 735.609 215.731 723.196C214.391 713.573 212.041 703.544 211.063 693.767C207.585 659.012 210.49 618.668 236.002 592.232C238.756 589.377 242.902 585.998 246.254 584.183C248.065 572.218 249.027 560.717 251.168 548.573C256.348 519.193 265.912 493.693 279.006 467.009C251.955 476.286 226.301 497.961 210.008 521.203C206.98 525.523 205.506 528.43 200.983 531.517C198.154 531.883 187.686 531.505 184.722 530.686C174.824 527.949 152.169 534.507 152.604 518.598C152.683 515.709 156.071 510.934 158.852 510.709C170.049 509.805 181.872 511.211 193.2 511.706C201.518 499.908 207.662 491.952 218.47 482.002C236.256 465.711 257.294 453.377 280.197 445.814C283.872 444.613 290.539 442.467 294.325 442.618C301.438 430.768 310.051 419.886 319.952 410.242C324.641 405.6 330.164 400.977 334.497 396.118L335.019 395.527C318.795 378.209 308.169 358.231 301.127 335.713C296.362 320.475 293.509 308.45 284.45 294.868C278.691 285.696 272.351 278.415 264.186 271.212C257.91 265.676 245.003 258.098 253.15 248.394C259.708 240.582 269.016 250.096 274.506 254.655C291.517 268.781 305.169 287.418 312.611 308.316C319.434 328.889 324.351 349.173 337.495 367.028C340.499 371.173 344.092 376.74 347.931 380.166L348.495 380.66C350.122 375.031 350.76 370.243 352.687 364.291C362.542 333.847 379.89 310.872 405.819 292.537C413.139 287.361 420.673 284.363 427.378 279.549C429.249 278.206 432.206 266.519 434.076 262.829C438.734 253.64 442.86 248.891 449.819 241.531C440.299 221.731 417.054 199.226 399.166 186.585C390.7 180.603 380.977 175.613 372.197 170.125C364.03 165.02 365.631 154.891 375.179 152.105ZM401.057 818.343C425.512 790.596 445.385 759.127 459.928 725.12C492.853 648.004 501.736 546.875 502.041 463.939L502.161 422.348C502.168 415.921 502.418 407.598 502.1 401.355C502.077 400.985 502.049 400.615 502.015 400.245C494.781 399.393 486.349 399.611 478.972 399.605L446.995 399.593C418.324 399.592 387.413 399.025 358.867 399.649C250.628 489.275 233.875 661.694 324.327 769.987C345.347 795.153 364.836 810.322 392.467 827.884C395.447 825.713 398.655 821.326 401.057 818.343ZM699.912 770.645C708.844 759.31 718.697 746.608 725.747 734.033C753.084 685.271 764.217 624.665 757.62 569.324C751.927 521.426 733.089 476.037 703.193 438.185C693.724 426.34 678.178 410.001 666.731 399.824C643.684 398.694 614.109 399.533 590.578 399.535C575.741 399.449 560.903 399.444 546.065 399.52C539.465 399.549 530.92 399.366 524.483 399.731C522.157 402.037 522.971 410.919 522.955 414.285C522.801 447.924 522.511 481.744 524.182 515.343C525.471 541.277 528.421 567.467 532.053 593.173C544.429 680.758 569.049 762.601 632.673 827.361L633.008 827.698C658.41 812.65 681.04 793.352 699.912 770.645Z"/><path fill="white" d="M376.736 682.341C399.701 678.629 421.353 694.16 425.2 717.103C429.046 740.046 413.642 761.789 390.722 765.77C367.611 769.784 345.648 754.224 341.769 731.09C337.891 707.956 353.579 686.084 376.736 682.341Z"/><path fill="white" d="M334.155 569.727C357.307 566.841 378.423 583.249 381.347 606.396C384.272 629.544 367.899 650.687 344.756 653.65C321.559 656.619 300.356 640.2 297.425 616.998C294.494 593.796 310.948 572.62 334.155 569.727Z"/><path fill="white" d="M399.988 445.161C423.23 442.829 443.952 459.803 446.242 483.049C448.533 506.295 431.521 526.987 408.271 529.235C385.08 531.478 364.453 514.519 362.168 491.332C359.884 468.145 376.805 447.487 399.988 445.161Z"/><path fill="white" d="M681.108 569.572C704.477 567.239 725.295 584.337 727.549 607.715C729.802 631.092 712.634 651.852 689.249 654.026C665.976 656.19 645.337 639.122 643.094 615.856C640.851 592.591 657.85 571.894 681.108 569.572Z"/><path fill="white" d="M634.339 682.381C657.368 678.577 679.127 694.142 682.966 717.166C686.805 740.189 671.274 761.972 648.256 765.846C625.189 769.729 603.349 754.156 599.501 731.083C595.654 708.01 611.26 686.193 634.339 682.381Z"/><path fill="white" d="M614.246 445.564C637.426 442.181 658.922 458.334 662.12 481.54C665.319 504.746 648.995 526.113 625.764 529.127C602.793 532.108 581.717 516.006 578.554 493.059C575.391 470.113 591.325 448.909 614.246 445.564Z"/></svg>